<svg xmlns="http://www.w3.org/2000/svg" xmlns:xlink="http://www.w3.org/1999/xlink" width="500" zoomAndPan="magnify" viewBox="50 50 250 250" height="500" preserveAspectRatio="xMidYMid meet" version="1.2"><defs><clipPath id="923541351f"><path d="M 159 148 L 171 148 L 171 209.3125 L 159 209.3125 Z M 159 148 "/></clipPath><clipPath id="e6041279ef"><path d="M 174 137 L 186 137 L 186 209.3125 L 174 209.3125 Z M 174 137 "/></clipPath><clipPath id="f521305453"><path d="M 189 124 L 201 124 L 201 209.3125 L 189 209.3125 Z M 189 124 "/></clipPath><clipPath id="3aa1a04717"><path d="M 124.601562 101.3125 L 250.523438 101.3125 L 250.523438 209.3125 L 124.601562 209.3125 Z M 124.601562 101.3125 "/></clipPath></defs><g id="79aec23482"><rect x="0" width="375" y="0" height="374.999991" style="fill:#ffffff;fill-opacity:1;stroke:none;"/><rect x="0" width="375" y="0" height="374.999991" style="fill:#2c3e50;fill-opacity:1;stroke:none;"/><g style="fill:#1abc9c;fill-opacity:1;"><g transform="translate(78.442281, 248.764964)"><path style="stroke:none" d="M 11.671875 0.5 C 9.585938 0.5 7.789062 0.15625 6.28125 -0.53125 C 4.769531 -1.21875 3.601562 -2.195312 2.78125 -3.46875 C 1.96875 -4.738281 1.5625 -6.226562 1.5625 -7.9375 L 7.125 -7.9375 C 7.125 -6.75 7.53125 -5.820312 8.34375 -5.15625 C 9.164062 -4.5 10.265625 -4.171875 11.640625 -4.171875 C 12.828125 -4.171875 13.765625 -4.398438 14.453125 -4.859375 C 15.140625 -5.316406 15.484375 -5.960938 15.484375 -6.796875 C 15.484375 -7.671875 15.066406 -8.378906 14.234375 -8.921875 C 13.398438 -9.472656 12.109375 -9.941406 10.359375 -10.328125 C 7.441406 -10.941406 5.28125 -11.875 3.875 -13.125 C 2.476562 -14.382812 1.78125 -16.023438 1.78125 -18.046875 C 1.78125 -20.328125 2.609375 -22.125 4.265625 -23.4375 C 5.929688 -24.75 8.195312 -25.40625 11.0625 -25.40625 C 13.039062 -25.40625 14.75 -25.066406 16.1875 -24.390625 C 17.632812 -23.722656 18.753906 -22.773438 19.546875 -21.546875 C 20.347656 -20.328125 20.75 -18.875 20.75 -17.1875 L 15.3125 -17.1875 C 15.3125 -18.300781 14.941406 -19.175781 14.203125 -19.8125 C 13.460938 -20.457031 12.441406 -20.78125 11.140625 -20.78125 C 9.953125 -20.78125 9.015625 -20.550781 8.328125 -20.09375 C 7.640625 -19.632812 7.296875 -18.988281 7.296875 -18.15625 C 7.296875 -17.394531 7.675781 -16.753906 8.4375 -16.234375 C 9.195312 -15.710938 10.523438 -15.222656 12.421875 -14.765625 C 15.523438 -14.035156 17.765625 -13.050781 19.140625 -11.8125 C 20.523438 -10.582031 21.21875 -8.984375 21.21875 -7.015625 C 21.21875 -4.660156 20.367188 -2.816406 18.671875 -1.484375 C 16.972656 -0.160156 14.640625 0.5 11.671875 0.5 Z M 11.671875 0.5 "/></g></g><g style="fill:#1abc9c;fill-opacity:1;"><g transform="translate(100.180023, 248.764964)"><path style="stroke:none" d="M 0.328125 0 L 10.21875 -24.921875 L 15.765625 -24.921875 L 25.65625 0 L 19.609375 0 L 17.9375 -4.3125 L 8.046875 -4.3125 L 6.375 0 Z M 9.5 -8.75 L 16.515625 -8.75 L 12.984375 -17.875 Z M 9.5 -8.75 "/></g></g><g style="fill:#1abc9c;fill-opacity:1;"><g transform="translate(125.084208, 248.764964)"><path style="stroke:none" d="M 11.671875 0.5 C 9.585938 0.5 7.789062 0.15625 6.28125 -0.53125 C 4.769531 -1.21875 3.601562 -2.195312 2.78125 -3.46875 C 1.96875 -4.738281 1.5625 -6.226562 1.5625 -7.9375 L 7.125 -7.9375 C 7.125 -6.75 7.53125 -5.820312 8.34375 -5.15625 C 9.164062 -4.5 10.265625 -4.171875 11.640625 -4.171875 C 12.828125 -4.171875 13.765625 -4.398438 14.453125 -4.859375 C 15.140625 -5.316406 15.484375 -5.960938 15.484375 -6.796875 C 15.484375 -7.671875 15.066406 -8.378906 14.234375 -8.921875 C 13.398438 -9.472656 12.109375 -9.941406 10.359375 -10.328125 C 7.441406 -10.941406 5.28125 -11.875 3.875 -13.125 C 2.476562 -14.382812 1.78125 -16.023438 1.78125 -18.046875 C 1.78125 -20.328125 2.609375 -22.125 4.265625 -23.4375 C 5.929688 -24.75 8.195312 -25.40625 11.0625 -25.40625 C 13.039062 -25.40625 14.75 -25.066406 16.1875 -24.390625 C 17.632812 -23.722656 18.753906 -22.773438 19.546875 -21.546875 C 20.347656 -20.328125 20.75 -18.875 20.75 -17.1875 L 15.3125 -17.1875 C 15.3125 -18.300781 14.941406 -19.175781 14.203125 -19.8125 C 13.460938 -20.457031 12.441406 -20.78125 11.140625 -20.78125 C 9.953125 -20.78125 9.015625 -20.550781 8.328125 -20.09375 C 7.640625 -19.632812 7.296875 -18.988281 7.296875 -18.15625 C 7.296875 -17.394531 7.675781 -16.753906 8.4375 -16.234375 C 9.195312 -15.710938 10.523438 -15.222656 12.421875 -14.765625 C 15.523438 -14.035156 17.765625 -13.050781 19.140625 -11.8125 C 20.523438 -10.582031 21.21875 -8.984375 21.21875 -7.015625 C 21.21875 -4.660156 20.367188 -2.816406 18.671875 -1.484375 C 16.972656 -0.160156 14.640625 0.5 11.671875 0.5 Z M 11.671875 0.5 "/></g></g><g style="fill:#1abc9c;fill-opacity:1;"><g transform="translate(146.82195, 248.764964)"><path style="stroke:none" d="M 14.8125 0.5 C 12.21875 0.5 9.914062 -0.0507812 7.90625 -1.15625 C 5.90625 -2.257812 4.34375 -3.785156 3.21875 -5.734375 C 2.09375 -7.679688 1.53125 -9.921875 1.53125 -12.453125 C 1.53125 -14.992188 2.09375 -17.238281 3.21875 -19.1875 C 4.34375 -21.132812 5.90625 -22.65625 7.90625 -23.75 C 9.914062 -24.851562 12.21875 -25.40625 14.8125 -25.40625 C 17.414062 -25.40625 19.710938 -24.851562 21.703125 -23.75 C 23.703125 -22.65625 25.269531 -21.132812 26.40625 -19.1875 C 27.550781 -17.238281 28.125 -14.992188 28.125 -12.453125 C 28.125 -9.921875 27.550781 -7.679688 26.40625 -5.734375 C 25.269531 -3.785156 23.703125 -2.257812 21.703125 -1.15625 C 19.710938 -0.0507812 17.414062 0.5 14.8125 0.5 Z M 7.296875 -12.453125 C 7.296875 -10.960938 7.613281 -9.644531 8.25 -8.5 C 8.894531 -7.363281 9.78125 -6.472656 10.90625 -5.828125 C 12.03125 -5.191406 13.332031 -4.875 14.8125 -4.875 C 16.300781 -4.875 17.609375 -5.191406 18.734375 -5.828125 C 19.867188 -6.472656 20.75 -7.363281 21.375 -8.5 C 22 -9.644531 22.3125 -10.960938 22.3125 -12.453125 C 22.3125 -13.953125 22 -15.269531 21.375 -16.40625 C 20.75 -17.550781 19.867188 -18.441406 18.734375 -19.078125 C 17.609375 -19.722656 16.300781 -20.046875 14.8125 -20.046875 C 13.332031 -20.046875 12.03125 -19.722656 10.90625 -19.078125 C 9.78125 -18.441406 8.894531 -17.550781 8.25 -16.40625 C 7.613281 -15.269531 7.296875 -13.953125 7.296875 -12.453125 Z M 7.296875 -12.453125 "/></g></g><g style="fill:#1abc9c;fill-opacity:1;"><g transform="translate(175.390682, 248.764964)"><path style="stroke:none" d="M 2.984375 0 L 2.984375 -24.921875 L 8.65625 -24.921875 L 8.65625 -5.296875 L 19.546875 -5.296875 L 19.546875 0 Z M 2.984375 0 "/></g></g><g style="fill:#1abc9c;fill-opacity:1;"><g transform="translate(194.815847, 248.764964)"><path style="stroke:none" d="M 2.984375 0 L 2.984375 -24.921875 L 14.125 -24.921875 C 16.664062 -24.921875 18.679688 -24.3125 20.171875 -23.09375 C 21.671875 -21.882812 22.421875 -20.257812 22.421875 -18.21875 C 22.421875 -17.0625 22.160156 -16.003906 21.640625 -15.046875 C 21.117188 -14.097656 20.382812 -13.351562 19.4375 -12.8125 C 20.625 -12.289062 21.539062 -11.519531 22.1875 -10.5 C 22.84375 -9.476562 23.171875 -8.300781 23.171875 -6.96875 C 23.171875 -5.570312 22.8125 -4.351562 22.09375 -3.3125 C 21.382812 -2.269531 20.394531 -1.457031 19.125 -0.875 C 17.863281 -0.289062 16.390625 0 14.703125 0 Z M 8.578125 -4.484375 L 13.84375 -4.484375 C 14.957031 -4.484375 15.820312 -4.742188 16.4375 -5.265625 C 17.0625 -5.785156 17.375 -6.519531 17.375 -7.46875 C 17.375 -8.414062 17.0625 -9.148438 16.4375 -9.671875 C 15.820312 -10.203125 14.957031 -10.46875 13.84375 -10.46875 L 8.578125 -10.46875 Z M 8.578125 -14.765625 L 13.28125 -14.765625 C 14.363281 -14.765625 15.195312 -15.015625 15.78125 -15.515625 C 16.363281 -16.015625 16.65625 -16.71875 16.65625 -17.625 C 16.65625 -18.519531 16.363281 -19.210938 15.78125 -19.703125 C 15.195312 -20.191406 14.363281 -20.4375 13.28125 -20.4375 L 8.578125 -20.4375 Z M 8.578125 -14.765625 "/></g></g><g style="fill:#1abc9c;fill-opacity:1;"><g transform="translate(218.261334, 248.764964)"><path style="stroke:none" d="M 13.171875 0.5 C 11.015625 0.5 9.15625 0.0664062 7.59375 -0.796875 C 6.039062 -1.660156 4.84375 -2.894531 4 -4.5 C 3.15625 -6.101562 2.734375 -8.019531 2.734375 -10.25 L 2.734375 -24.921875 L 8.40625 -24.921875 L 8.40625 -10.640625 C 8.40625 -6.796875 9.992188 -4.875 13.171875 -4.875 C 16.347656 -4.875 17.9375 -6.796875 17.9375 -10.640625 L 17.9375 -24.921875 L 23.59375 -24.921875 L 23.59375 -10.25 C 23.59375 -8.019531 23.171875 -6.101562 22.328125 -4.5 C 21.492188 -2.894531 20.296875 -1.660156 18.734375 -0.796875 C 17.179688 0.0664062 15.328125 0.5 13.171875 0.5 Z M 13.171875 0.5 "/></g></g><g style="fill:#1abc9c;fill-opacity:1;"><g transform="translate(243.521304, 248.764964)"><path style="stroke:none" d="M 2.984375 0 L 2.984375 -24.921875 L 13.625 -24.921875 C 15.53125 -24.921875 17.179688 -24.570312 18.578125 -23.875 C 19.984375 -23.1875 21.0625 -22.203125 21.8125 -20.921875 C 22.570312 -19.640625 22.953125 -18.113281 22.953125 -16.34375 C 22.953125 -14.507812 22.535156 -12.929688 21.703125 -11.609375 C 20.878906 -10.296875 19.71875 -9.3125 18.21875 -8.65625 L 23.390625 0 L 16.828125 0 L 12.390625 -7.765625 L 8.65625 -7.765625 L 8.65625 0 Z M 8.578125 -12.53125 L 12.890625 -12.53125 C 14.285156 -12.53125 15.359375 -12.851562 16.109375 -13.5 C 16.859375 -14.15625 17.234375 -15.085938 17.234375 -16.296875 C 17.234375 -17.515625 16.859375 -18.445312 16.109375 -19.09375 C 15.359375 -19.75 14.285156 -20.078125 12.890625 -20.078125 L 8.578125 -20.078125 Z M 8.578125 -12.53125 "/></g></g><g style="fill:#1abc9c;fill-opacity:1;"><g transform="translate(267.500463, 248.764964)"><path style="stroke:none" d="M 14.59375 0.5 C 12.050781 0.5 9.796875 -0.0507812 7.828125 -1.15625 C 5.859375 -2.257812 4.316406 -3.785156 3.203125 -5.734375 C 2.085938 -7.679688 1.53125 -9.921875 1.53125 -12.453125 C 1.53125 -14.992188 2.082031 -17.238281 3.1875 -19.1875 C 4.289062 -21.132812 5.820312 -22.65625 7.78125 -23.75 C 9.738281 -24.851562 11.972656 -25.40625 14.484375 -25.40625 C 16.503906 -25.40625 18.367188 -25.050781 20.078125 -24.34375 C 21.785156 -23.632812 23.238281 -22.632812 24.4375 -21.34375 C 25.632812 -20.050781 26.484375 -18.523438 26.984375 -16.765625 L 20.890625 -16.765625 C 20.296875 -17.859375 19.445312 -18.707031 18.34375 -19.3125 C 17.238281 -19.914062 15.988281 -20.21875 14.59375 -20.21875 C 13.144531 -20.21875 11.863281 -19.882812 10.75 -19.21875 C 9.632812 -18.550781 8.757812 -17.632812 8.125 -16.46875 C 7.5 -15.3125 7.1875 -13.972656 7.1875 -12.453125 C 7.1875 -10.960938 7.492188 -9.632812 8.109375 -8.46875 C 8.734375 -7.3125 9.601562 -6.394531 10.71875 -5.71875 C 11.832031 -5.039062 13.148438 -4.703125 14.671875 -4.703125 C 16.492188 -4.703125 18.007812 -5.160156 19.21875 -6.078125 C 20.425781 -7.003906 21.207031 -8.226562 21.5625 -9.75 L 13.484375 -9.75 L 13.484375 -14.125 L 27.546875 -14.125 C 27.691406 -11.988281 27.484375 -10.03125 26.921875 -8.25 C 26.367188 -6.476562 25.515625 -4.929688 24.359375 -3.609375 C 23.210938 -2.296875 21.8125 -1.28125 20.15625 -0.5625 C 18.507812 0.144531 16.65625 0.5 14.59375 0.5 Z M 14.59375 0.5 "/></g></g><g style="fill:#1abc9c;fill-opacity:1;"><g transform="translate(71.200616, 270.720395)"><path style="stroke:none" d="M 4.5 0.0625 C 3.757812 0.0625 3.085938 -0.0976562 2.484375 -0.421875 C 1.878906 -0.753906 1.40625 -1.210938 1.0625 -1.796875 C 0.726562 -2.390625 0.5625 -3.050781 0.5625 -3.78125 C 0.5625 -4.5 0.726562 -5.148438 1.0625 -5.734375 C 1.40625 -6.328125 1.878906 -6.785156 2.484375 -7.109375 C 3.085938 -7.441406 3.765625 -7.609375 4.515625 -7.609375 C 5.078125 -7.609375 5.59375 -7.515625 6.0625 -7.328125 C 6.539062 -7.140625 6.945312 -6.867188 7.28125 -6.515625 L 6.765625 -6 C 6.179688 -6.601562 5.4375 -6.90625 4.53125 -6.90625 C 3.9375 -6.90625 3.394531 -6.765625 2.90625 -6.484375 C 2.414062 -6.210938 2.03125 -5.835938 1.75 -5.359375 C 1.476562 -4.890625 1.34375 -4.363281 1.34375 -3.78125 C 1.34375 -3.1875 1.476562 -2.648438 1.75 -2.171875 C 2.03125 -1.703125 2.414062 -1.328125 2.90625 -1.046875 C 3.394531 -0.773438 3.9375 -0.640625 4.53125 -0.640625 C 5.4375 -0.640625 6.179688 -0.941406 6.765625 -1.546875 L 7.28125 -1.046875 C 6.945312 -0.679688 6.539062 -0.40625 6.0625 -0.21875 C 5.582031 -0.03125 5.0625 0.0625 4.5 0.0625 Z M 4.5 0.0625 "/></g></g><g style="fill:#1abc9c;fill-opacity:1;"><g transform="translate(83.730734, 270.720395)"><path style="stroke:none" d="M 7.53125 -7.546875 L 7.53125 0 L 6.75 0 L 6.75 -3.484375 L 2.03125 -3.484375 L 2.03125 0 L 1.234375 0 L 1.234375 -7.546875 L 2.03125 -7.546875 L 2.03125 -4.1875 L 6.75 -4.1875 L 6.75 -7.546875 Z M 7.53125 -7.546875 "/></g></g><g style="fill:#1abc9c;fill-opacity:1;"><g transform="translate(97.274324, 270.720395)"><path style="stroke:none" d="M 5.96875 -2.015625 L 1.75 -2.015625 L 0.859375 0 L 0.015625 0 L 3.46875 -7.546875 L 4.265625 -7.546875 L 7.703125 0 L 6.875 0 Z M 5.671875 -2.65625 L 3.859375 -6.71875 L 2.046875 -2.65625 Z M 5.671875 -2.65625 "/></g></g><g style="fill:#1abc9c;fill-opacity:1;"><g transform="translate(109.782879, 270.720395)"><path style="stroke:none" d="M 9.0625 -7.546875 L 9.0625 0 L 8.296875 0 L 8.296875 -6.03125 L 5.34375 -0.953125 L 4.953125 -0.953125 L 2 -6 L 2 0 L 1.234375 0 L 1.234375 -7.546875 L 1.890625 -7.546875 L 5.171875 -1.953125 L 8.40625 -7.546875 Z M 9.0625 -7.546875 "/></g></g><g style="fill:#1abc9c;fill-opacity:1;"><g transform="translate(124.857465, 270.720395)"><path style="stroke:none" d="M 5.984375 -3.890625 C 6.484375 -3.785156 6.863281 -3.570312 7.125 -3.25 C 7.394531 -2.925781 7.53125 -2.515625 7.53125 -2.015625 C 7.53125 -1.367188 7.289062 -0.867188 6.8125 -0.515625 C 6.34375 -0.171875 5.640625 0 4.703125 0 L 1.234375 0 L 1.234375 -7.546875 L 4.484375 -7.546875 C 5.328125 -7.546875 5.976562 -7.375 6.4375 -7.03125 C 6.90625 -6.695312 7.140625 -6.222656 7.140625 -5.609375 C 7.140625 -5.191406 7.035156 -4.835938 6.828125 -4.546875 C 6.617188 -4.253906 6.335938 -4.035156 5.984375 -3.890625 Z M 2.03125 -6.890625 L 2.03125 -4.15625 L 4.4375 -4.15625 C 5.039062 -4.15625 5.507812 -4.269531 5.84375 -4.5 C 6.175781 -4.738281 6.34375 -5.078125 6.34375 -5.515625 C 6.34375 -5.960938 6.175781 -6.300781 5.84375 -6.53125 C 5.507812 -6.769531 5.039062 -6.890625 4.4375 -6.890625 Z M 4.6875 -0.65625 C 5.363281 -0.65625 5.875 -0.769531 6.21875 -1 C 6.5625 -1.226562 6.734375 -1.585938 6.734375 -2.078125 C 6.734375 -3.023438 6.050781 -3.5 4.6875 -3.5 L 2.03125 -3.5 L 2.03125 -0.65625 Z M 4.6875 -0.65625 "/></g></g><g style="fill:#1abc9c;fill-opacity:1;"><g transform="translate(137.764935, 270.720395)"><path style="stroke:none" d="M 6.5625 -0.6875 L 6.5625 0 L 1.234375 0 L 1.234375 -7.546875 L 6.40625 -7.546875 L 6.40625 -6.859375 L 2.03125 -6.859375 L 2.03125 -4.171875 L 5.9375 -4.171875 L 5.9375 -3.5 L 2.03125 -3.5 L 2.03125 -0.6875 Z M 6.5625 -0.6875 "/></g></g><g style="fill:#1abc9c;fill-opacity:1;"><g transform="translate(149.755978, 270.720395)"><path style="stroke:none" d="M 6.375 0 L 4.65625 -2.421875 C 4.457031 -2.398438 4.253906 -2.390625 4.046875 -2.390625 L 2.03125 -2.390625 L 2.03125 0 L 1.234375 0 L 1.234375 -7.546875 L 4.046875 -7.546875 C 5.015625 -7.546875 5.769531 -7.316406 6.3125 -6.859375 C 6.863281 -6.398438 7.140625 -5.765625 7.140625 -4.953125 C 7.140625 -4.367188 6.988281 -3.875 6.6875 -3.46875 C 6.394531 -3.0625 5.96875 -2.769531 5.40625 -2.59375 L 7.25 0 Z M 4.03125 -3.078125 C 4.78125 -3.078125 5.351562 -3.238281 5.75 -3.5625 C 6.144531 -3.894531 6.34375 -4.359375 6.34375 -4.953125 C 6.34375 -5.566406 6.144531 -6.035156 5.75 -6.359375 C 5.351562 -6.691406 4.78125 -6.859375 4.03125 -6.859375 L 2.03125 -6.859375 L 2.03125 -3.078125 Z M 4.03125 -3.078125 "/></g></g><g style="fill:#1abc9c;fill-opacity:1;"><g transform="translate(162.329224, 270.720395)"><path style="stroke:none" d=""/></g></g><g style="fill:#1abc9c;fill-opacity:1;"><g transform="translate(169.932141, 270.720395)"><path style="stroke:none" d="M 4.53125 0.0625 C 3.78125 0.0625 3.097656 -0.101562 2.484375 -0.4375 C 1.878906 -0.769531 1.40625 -1.226562 1.0625 -1.8125 C 0.726562 -2.394531 0.5625 -3.050781 0.5625 -3.78125 C 0.5625 -4.5 0.726562 -5.148438 1.0625 -5.734375 C 1.40625 -6.316406 1.878906 -6.773438 2.484375 -7.109375 C 3.097656 -7.441406 3.78125 -7.609375 4.53125 -7.609375 C 5.28125 -7.609375 5.953125 -7.441406 6.546875 -7.109375 C 7.148438 -6.785156 7.625 -6.328125 7.96875 -5.734375 C 8.3125 -5.148438 8.484375 -4.5 8.484375 -3.78125 C 8.484375 -3.050781 8.3125 -2.390625 7.96875 -1.796875 C 7.625 -1.210938 7.148438 -0.753906 6.546875 -0.421875 C 5.953125 -0.0976562 5.28125 0.0625 4.53125 0.0625 Z M 4.53125 -0.640625 C 5.125 -0.640625 5.660156 -0.773438 6.140625 -1.046875 C 6.628906 -1.316406 7.007812 -1.691406 7.28125 -2.171875 C 7.550781 -2.648438 7.6875 -3.1875 7.6875 -3.78125 C 7.6875 -4.363281 7.550781 -4.894531 7.28125 -5.375 C 7.007812 -5.851562 6.628906 -6.226562 6.140625 -6.5 C 5.660156 -6.769531 5.125 -6.90625 4.53125 -6.90625 C 3.9375 -6.90625 3.394531 -6.769531 2.90625 -6.5 C 2.414062 -6.226562 2.03125 -5.851562 1.75 -5.375 C 1.476562 -4.894531 1.34375 -4.363281 1.34375 -3.78125 C 1.34375 -3.1875 1.476562 -2.648438 1.75 -2.171875 C 2.03125 -1.691406 2.414062 -1.316406 2.90625 -1.046875 C 3.394531 -0.773438 3.9375 -0.640625 4.53125 -0.640625 Z M 4.53125 -0.640625 "/></g></g><g style="fill:#1abc9c;fill-opacity:1;"><g transform="translate(183.756052, 270.720395)"><path style="stroke:none" d="M 2.03125 -6.859375 L 2.03125 -3.890625 L 5.9375 -3.890625 L 5.9375 -3.203125 L 2.03125 -3.203125 L 2.03125 0 L 1.234375 0 L 1.234375 -7.546875 L 6.40625 -7.546875 L 6.40625 -6.859375 Z M 2.03125 -6.859375 "/></g></g><g style="fill:#1abc9c;fill-opacity:1;"><g transform="translate(195.358954, 270.720395)"><path style="stroke:none" d=""/></g></g><g style="fill:#1abc9c;fill-opacity:1;"><g transform="translate(202.961871, 270.720395)"><path style="stroke:none" d="M 4.5 0.0625 C 3.757812 0.0625 3.085938 -0.0976562 2.484375 -0.421875 C 1.878906 -0.753906 1.40625 -1.210938 1.0625 -1.796875 C 0.726562 -2.390625 0.5625 -3.050781 0.5625 -3.78125 C 0.5625 -4.5 0.726562 -5.148438 1.0625 -5.734375 C 1.40625 -6.328125 1.878906 -6.785156 2.484375 -7.109375 C 3.085938 -7.441406 3.765625 -7.609375 4.515625 -7.609375 C 5.078125 -7.609375 5.59375 -7.515625 6.0625 -7.328125 C 6.539062 -7.140625 6.945312 -6.867188 7.28125 -6.515625 L 6.765625 -6 C 6.179688 -6.601562 5.4375 -6.90625 4.53125 -6.90625 C 3.9375 -6.90625 3.394531 -6.765625 2.90625 -6.484375 C 2.414062 -6.210938 2.03125 -5.835938 1.75 -5.359375 C 1.476562 -4.890625 1.34375 -4.363281 1.34375 -3.78125 C 1.34375 -3.1875 1.476562 -2.648438 1.75 -2.171875 C 2.03125 -1.703125 2.414062 -1.328125 2.90625 -1.046875 C 3.394531 -0.773438 3.9375 -0.640625 4.53125 -0.640625 C 5.4375 -0.640625 6.179688 -0.941406 6.765625 -1.546875 L 7.28125 -1.046875 C 6.945312 -0.679688 6.539062 -0.40625 6.0625 -0.21875 C 5.582031 -0.03125 5.0625 0.0625 4.5 0.0625 Z M 4.5 0.0625 "/></g></g><g style="fill:#1abc9c;fill-opacity:1;"><g transform="translate(215.49199, 270.720395)"><path style="stroke:none" d="M 4.53125 0.0625 C 3.78125 0.0625 3.097656 -0.101562 2.484375 -0.4375 C 1.878906 -0.769531 1.40625 -1.226562 1.0625 -1.8125 C 0.726562 -2.394531 0.5625 -3.050781 0.5625 -3.78125 C 0.5625 -4.5 0.726562 -5.148438 1.0625 -5.734375 C 1.40625 -6.316406 1.878906 -6.773438 2.484375 -7.109375 C 3.097656 -7.441406 3.78125 -7.609375 4.53125 -7.609375 C 5.28125 -7.609375 5.953125 -7.441406 6.546875 -7.109375 C 7.148438 -6.785156 7.625 -6.328125 7.96875 -5.734375 C 8.3125 -5.148438 8.484375 -4.5 8.484375 -3.78125 C 8.484375 -3.050781 8.3125 -2.390625 7.96875 -1.796875 C 7.625 -1.210938 7.148438 -0.753906 6.546875 -0.421875 C 5.953125 -0.0976562 5.28125 0.0625 4.53125 0.0625 Z M 4.53125 -0.640625 C 5.125 -0.640625 5.660156 -0.773438 6.140625 -1.046875 C 6.628906 -1.316406 7.007812 -1.691406 7.28125 -2.171875 C 7.550781 -2.648438 7.6875 -3.1875 7.6875 -3.78125 C 7.6875 -4.363281 7.550781 -4.894531 7.28125 -5.375 C 7.007812 -5.851562 6.628906 -6.226562 6.140625 -6.5 C 5.660156 -6.769531 5.125 -6.90625 4.53125 -6.90625 C 3.9375 -6.90625 3.394531 -6.769531 2.90625 -6.5 C 2.414062 -6.226562 2.03125 -5.851562 1.75 -5.375 C 1.476562 -4.894531 1.34375 -4.363281 1.34375 -3.78125 C 1.34375 -3.1875 1.476562 -2.648438 1.75 -2.171875 C 2.03125 -1.691406 2.414062 -1.316406 2.90625 -1.046875 C 3.394531 -0.773438 3.9375 -0.640625 4.53125 -0.640625 Z M 4.53125 -0.640625 "/></g></g><g style="fill:#1abc9c;fill-opacity:1;"><g transform="translate(229.3159, 270.720395)"><path style="stroke:none" d="M 9.0625 -7.546875 L 9.0625 0 L 8.296875 0 L 8.296875 -6.03125 L 5.34375 -0.953125 L 4.953125 -0.953125 L 2 -6 L 2 0 L 1.234375 0 L 1.234375 -7.546875 L 1.890625 -7.546875 L 5.171875 -1.953125 L 8.40625 -7.546875 Z M 9.0625 -7.546875 "/></g></g><g style="fill:#1abc9c;fill-opacity:1;"><g transform="translate(244.390487, 270.720395)"><path style="stroke:none" d="M 9.0625 -7.546875 L 9.0625 0 L 8.296875 0 L 8.296875 -6.03125 L 5.34375 -0.953125 L 4.953125 -0.953125 L 2 -6 L 2 0 L 1.234375 0 L 1.234375 -7.546875 L 1.890625 -7.546875 L 5.171875 -1.953125 L 8.40625 -7.546875 Z M 9.0625 -7.546875 "/></g></g><g style="fill:#1abc9c;fill-opacity:1;"><g transform="translate(259.465074, 270.720395)"><path style="stroke:none" d="M 6.5625 -0.6875 L 6.5625 0 L 1.234375 0 L 1.234375 -7.546875 L 6.40625 -7.546875 L 6.40625 -6.859375 L 2.03125 -6.859375 L 2.03125 -4.171875 L 5.9375 -4.171875 L 5.9375 -3.5 L 2.03125 -3.5 L 2.03125 -0.6875 Z M 6.5625 -0.6875 "/></g></g><g style="fill:#1abc9c;fill-opacity:1;"><g transform="translate(271.456116, 270.720395)"><path style="stroke:none" d="M 6.375 0 L 4.65625 -2.421875 C 4.457031 -2.398438 4.253906 -2.390625 4.046875 -2.390625 L 2.03125 -2.390625 L 2.03125 0 L 1.234375 0 L 1.234375 -7.546875 L 4.046875 -7.546875 C 5.015625 -7.546875 5.769531 -7.316406 6.3125 -6.859375 C 6.863281 -6.398438 7.140625 -5.765625 7.140625 -4.953125 C 7.140625 -4.367188 6.988281 -3.875 6.6875 -3.46875 C 6.394531 -3.0625 5.96875 -2.769531 5.40625 -2.59375 L 7.25 0 Z M 4.03125 -3.078125 C 4.78125 -3.078125 5.351562 -3.238281 5.75 -3.5625 C 6.144531 -3.894531 6.34375 -4.359375 6.34375 -4.953125 C 6.34375 -5.566406 6.144531 -6.035156 5.75 -6.359375 C 5.351562 -6.691406 4.78125 -6.859375 4.03125 -6.859375 L 2.03125 -6.859375 L 2.03125 -3.078125 Z M 4.03125 -3.078125 "/></g></g><g style="fill:#1abc9c;fill-opacity:1;"><g transform="translate(284.029374, 270.720395)"><path style="stroke:none" d="M 4.5 0.0625 C 3.757812 0.0625 3.085938 -0.0976562 2.484375 -0.421875 C 1.878906 -0.753906 1.40625 -1.210938 1.0625 -1.796875 C 0.726562 -2.390625 0.5625 -3.050781 0.5625 -3.78125 C 0.5625 -4.5 0.726562 -5.148438 1.0625 -5.734375 C 1.40625 -6.328125 1.878906 -6.785156 2.484375 -7.109375 C 3.085938 -7.441406 3.765625 -7.609375 4.515625 -7.609375 C 5.078125 -7.609375 5.59375 -7.515625 6.0625 -7.328125 C 6.539062 -7.140625 6.945312 -6.867188 7.28125 -6.515625 L 6.765625 -6 C 6.179688 -6.601562 5.4375 -6.90625 4.53125 -6.90625 C 3.9375 -6.90625 3.394531 -6.765625 2.90625 -6.484375 C 2.414062 -6.210938 2.03125 -5.835938 1.75 -5.359375 C 1.476562 -4.890625 1.34375 -4.363281 1.34375 -3.78125 C 1.34375 -3.1875 1.476562 -2.648438 1.75 -2.171875 C 2.03125 -1.703125 2.414062 -1.328125 2.90625 -1.046875 C 3.394531 -0.773438 3.9375 -0.640625 4.53125 -0.640625 C 5.4375 -0.640625 6.179688 -0.941406 6.765625 -1.546875 L 7.28125 -1.046875 C 6.945312 -0.679688 6.539062 -0.40625 6.0625 -0.21875 C 5.582031 -0.03125 5.0625 0.0625 4.5 0.0625 Z M 4.5 0.0625 "/></g></g><g style="fill:#1abc9c;fill-opacity:1;"><g transform="translate(296.559468, 270.720395)"><path style="stroke:none" d="M 6.5625 -0.6875 L 6.5625 0 L 1.234375 0 L 1.234375 -7.546875 L 6.40625 -7.546875 L 6.40625 -6.859375 L 2.03125 -6.859375 L 2.03125 -4.171875 L 5.9375 -4.171875 L 5.9375 -3.5 L 2.03125 -3.5 L 2.03125 -0.6875 Z M 6.5625 -0.6875 "/></g></g><g clip-rule="nonzero" clip-path="url(#923541351f)"><path style=" stroke:none;fill-rule:nonzero;fill:#0c2950;fill-opacity:1;" d="M 159.105469 148.742188 L 170.476562 148.742188 L 170.476562 209.03125 L 159.105469 209.03125 Z M 159.105469 148.742188 "/></g><g clip-rule="nonzero" clip-path="url(#e6041279ef)"><path style=" stroke:none;fill-rule:nonzero;fill:#1abc9c;fill-opacity:1;" d="M 174.109375 137.050781 L 185.484375 137.050781 L 185.484375 209.03125 L 174.109375 209.03125 Z M 174.109375 137.050781 "/></g><g clip-rule="nonzero" clip-path="url(#f521305453)"><path style=" stroke:none;fill-rule:nonzero;fill:#00b8e7;fill-opacity:1;" d="M 189.117188 124.101562 L 200.488281 124.101562 L 200.488281 209.03125 L 189.117188 209.03125 Z M 189.117188 124.101562 "/></g><g clip-rule="nonzero" clip-path="url(#3aa1a04717)"><path style=" stroke:none;fill-rule:nonzero;fill:#1abc9c;fill-opacity:1;" d="M 218.792969 121.007812 C 221.300781 120.09375 224.011719 119.597656 226.835938 119.597656 C 239.84375 119.597656 250.390625 130.144531 250.390625 143.15625 C 250.390625 147.101562 249.421875 150.820312 247.707031 154.085938 C 247.988281 152.621094 248.132812 151.105469 248.132812 149.558594 C 248.132812 136.226562 237.324219 125.417969 223.992188 125.417969 C 223.121094 125.417969 222.257812 125.464844 221.40625 125.554688 C 220.03125 125.703125 218.691406 125.964844 217.398438 126.332031 C 212.273438 127.78125 207.84375 130.882812 204.71875 135.023438 C 206.558594 130.019531 210.046875 125.816406 214.527344 123.066406 C 207.121094 115.496094 196.792969 110.796875 185.371094 110.796875 C 162.847656 110.796875 144.589844 129.054688 144.589844 151.578125 C 144.589844 152.863281 144.648438 154.132812 144.761719 155.386719 C 144.921875 157.085938 145.183594 158.757812 145.542969 160.394531 C 147.152344 167.699219 150.71875 174.265625 155.664062 179.523438 C 149.707031 174.925781 144.972656 168.820312 142.027344 161.785156 C 133.691406 165.835938 127.945312 174.386719 127.945312 184.277344 C 127.945312 196.898438 137.300781 207.332031 149.453125 209.03125 C 135.480469 207.808594 124.523438 196.082031 124.523438 181.796875 C 124.523438 170.8125 131 161.339844 140.347656 156.992188 C 139.25 153.167969 138.664062 149.128906 138.664062 144.953125 C 138.664062 120.851562 158.203125 101.3125 182.304688 101.3125 C 197.5625 101.3125 210.992188 109.144531 218.792969 121.007812 "/></g></g></svg>